<svg xmlns="http://www.w3.org/2000/svg" version="1.1" xmlns:xlink="http://www.w3.org/1999/xlink" width="512" height="512" x="0" y="0" viewBox="0 0 512 512" style="enable-background:new 0 0 512 512" xml:space="preserve" class=""><g><g data-name="STATIONERY AND OFFICE"><path d="M361.79 438.08q-6-83.77-6.56-167.74a129.18 129.18 0 0 1-53.14-34 140.31 140.31 0 0 1-23.62-33.7q-2.24 120.52 6.36 241c25.4 19.23 54.62 16.53 76.96-5.56zM326 475.71a71.07 71.07 0 0 1-39.4-8.37q.67 8.43 1.41 16.86a11.4 11.4 0 0 0 5.11 8.69c21.92 13.85 49.16 11 68.22-6.14a11.12 11.12 0 0 0 3.54-9.21q-.72-8.19-1.37-16.37c-11.58 8.5-24.37 13.43-37.51 14.54z" fill="#000000" opacity="1" data-original="#000000" class=""></path><path d="M508.94 77.47a24.71 24.71 0 0 0-3.58-10C486 37 446.59 14.63 407.94 10.91 341.4 4 281.48 59.47 280.8 133.93 280.1 203.7 333.31 258.7 396.63 258c38.78-.18 80-19.42 102.11-47.92a24.85 24.85 0 0 0 4.53-9.67 344.56 344.56 0 0 0 5.67-122.94zm-171.15 74.67c-10.64-.39-18.93-10-18.4-21.48s9.67-20.3 20.3-19.71 18.76 10.2 18.24 21.48-9.49 20.1-20.14 19.71zm141.78 13.1a14 14 0 1 1-27.18-6.8 114.82 114.82 0 0 0 2-43.81 14.29 14.29 0 0 1 11.26-16.25A14 14 0 0 1 482 109.73a5 5 0 0 1 .09.56 143.59 143.59 0 0 1-2.52 54.95zM151.21 438.08q6-83.77 6.56-167.74a129.18 129.18 0 0 0 53.14-34 140.31 140.31 0 0 0 23.62-33.7q2.24 120.52-6.36 241c-25.4 19.23-54.62 16.53-76.96-5.56zM187 475.71a71.07 71.07 0 0 0 39.4-8.37q-.68 8.43-1.41 16.86a11.4 11.4 0 0 1-5.11 8.69c-21.92 13.85-49.16 11-68.22-6.14a11.12 11.12 0 0 1-3.54-9.21q.72-8.19 1.37-16.37c11.58 8.5 24.37 13.43 37.51 14.54z" fill="#000000" opacity="1" data-original="#000000" class=""></path><path d="M8.73 200.39a24.85 24.85 0 0 0 4.53 9.67c22.08 28.5 64.33 47.74 103.11 47.94 63.32.72 116.53-54.28 115.83-124-.68-74.46-60.6-130-127.14-123C66.41 14.63 26 37 6.65 67.48a24.71 24.71 0 0 0-3.58 10 344.56 344.56 0 0 0 5.66 122.91zm146.34-68c-.52-11.28 7.6-20.89 18.24-21.48s19.77 8.23 20.3 19.71-7.76 21.09-18.4 21.48-19.62-8.39-20.14-19.67zM29.9 110.3a5 5 0 0 1 .09-.56 14 14 0 0 1 16.33-11.36 14.29 14.29 0 0 1 11.26 16.25 114.82 114.82 0 0 0 2 43.81 14 14 0 1 1-27.18 6.8 143.59 143.59 0 0 1-2.5-54.94z" fill="#000000" opacity="1" data-original="#000000" class=""></path></g></g></svg>