<svg xmlns="http://www.w3.org/2000/svg" version="1.1" xmlns:xlink="http://www.w3.org/1999/xlink" width="512" height="512" x="0" y="0" viewBox="0 0 512 512" style="enable-background:new 0 0 512 512" xml:space="preserve" class=""><g><path d="M381.93 370.56c-.638 0-1.278-.02-1.917-.032a80.858 80.858 0 0 1-8.897 6.573 91.497 91.497 0 0 1-8.912 4.988v94.414c0 18.616 15.145 33.761 33.76 33.761h13.037c18.616 0 33.76-15.145 33.76-33.76v-2.227h-36.403a8 8 0 1 1 0-16h36.404V352.4l-6.837 3.87c-16.52 9.348-35.192 14.29-53.996 14.29zM252.26 199.556l6.289-9.88c10.678-16.778 14.182-36.71 9.87-56.123-4.314-19.413-15.929-35.985-32.706-46.663-.111-.071-.226-.133-.338-.203a110.63 110.63 0 0 1 2.462 9.34c5.787 26.765 1.433 54.564-12.258 78.279-13.452 23.3-34.427 40.424-59.276 48.96l.205 7.17a73.499 73.499 0 0 0 22.796 3.624c5.417 0 10.877-.595 16.293-1.799 19.414-4.313 35.986-15.928 46.663-32.705z" fill="#000000" opacity="1" data-original="#000000"></path><path d="M175.422 146.308a206.887 206.887 0 0 0-9.603 60.06c19.154-7.76 35.277-21.657 45.903-40.062a93.866 93.866 0 0 0 10.476-66.897 93.869 93.869 0 0 0-37.174-56.596L152.96 19.855C131.631 4.585 104.672-1.1 78.995 4.26 53.318 9.619 30.883 25.612 17.444 48.138l-2.147 3.597C2.217 73.66-1.387 99.325 5.15 124.004c6.538 24.678 22.374 45.194 44.593 57.767l3.253 1.841a179.971 179.971 0 0 0-5.488-36.157l-6.696-25.898a8 8 0 1 1 15.49-4.005L63 143.454a195.976 195.976 0 0 1 6.24 49.056v124.556h36.403a8 8 0 1 1 0 16H69.238v2.226c0 18.616 15.145 33.76 33.76 33.76h13.038c18.559 0 33.665-15.053 33.756-33.591 0-.057.004-.112.004-.169V208.68c0-22.797 3.498-45.459 10.37-67.195l3.454-10.921a8 8 0 0 1 15.256 4.824zm-57.197 16.746a8 8 0 1 1-16 0v-50.17a8 8 0 1 1 16 0zM390.51 323.675c3.69-16.611.691-33.665-8.446-48.02l-17.829-28.015c-9.136-14.355-23.316-24.294-39.927-27.984-16.611-3.689-33.665-.692-48.02 8.445-34.635 22.042-44.879 68.151-22.837 102.786l6.289 9.88c10.677 16.777 27.25 28.392 46.663 32.706a75.085 75.085 0 0 0 16.293 1.798c13.999 0 27.734-3.97 39.83-11.668 14.355-9.137 24.293-23.316 27.984-39.928zm-66.393 17.268a7.99 7.99 0 0 1-6.592 3.458 7.955 7.955 0 0 1-4.535-1.415 8 8 0 0 1-2.043-11.128 17.543 17.543 0 0 0 .361-19.416l-12.48-19.609c-3.321-5.218-9.223-8.332-15.423-8.127-4.384.156-8.113-3.314-8.26-7.73a8 8 0 0 1 7.73-8.261c11.824-.384 23.106 5.557 29.451 15.527l12.48 19.61a33.513 33.513 0 0 1-.689 37.091z" fill="#000000" opacity="1" data-original="#000000"></path><path d="m496.703 192.946-2.147-3.597c-13.439-22.526-35.873-38.519-61.55-43.878-25.678-5.358-52.636.325-73.965 15.595l-32.065 22.958a93.988 93.988 0 0 0-19.006 18.13 80.228 80.228 0 0 1 19.806 1.882c20.786 4.618 38.527 17.052 49.957 35.013l17.83 28.014c11.43 17.96 15.183 39.298 10.566 60.083a79.666 79.666 0 0 1-11.176 26.489c11.53-1.629 22.705-5.414 33.092-11.292l34.211-19.36c22.22-12.574 38.057-33.09 44.594-57.769s2.933-50.343-10.147-72.268zm-36.093 26.69-34.745 22.802a7.993 7.993 0 0 1-11.078-2.3 8 8 0 0 1 2.3-11.077l34.745-22.802a8 8 0 0 1 8.778 13.377z" fill="#000000" opacity="1" data-original="#000000"></path></g></svg>