<svg xmlns="http://www.w3.org/2000/svg" version="1.1" xmlns:xlink="http://www.w3.org/1999/xlink" width="512" height="512" x="0" y="0" viewBox="0 0 512 512" style="enable-background:new 0 0 512 512" xml:space="preserve" class=""><g><path fill-rule="evenodd" d="M235.145 477.1v-41.3h-72.6v41.3a16.3 16.3 0 0 0 16.3 16.3h40a16.3 16.3 0 0 0 16.3-16.3zm230.7-267.5c19.3-10.2 34.9-24.6 45-41.7a8.123 8.123 0 0 0 1.1-4.1V80.1a7.046 7.046 0 0 0-1-4c-10.1-17.1-25.6-31.5-45-41.7-19.6-10.4-42.3-15.8-65.7-15.8-68 0-123.4 46.4-123.4 103.4v297.7h72.6V216.3a144.038 144.038 0 0 0 50.7 9.1 142.244 142.244 0 0 0 65.7-15.8zm-189 226.2v41.4a16.305 16.305 0 0 0 16.3 16.3h40a16.306 16.306 0 0 0 16.3-16.3v-41.4zm123.5-381.7a8.109 8.109 0 0 1 8 8.1 8.022 8.022 0 0 1-8 8c-27.7 0-60.5 13.6-69.6 39.5a7.917 7.917 0 0 1-7.5 5.3 6.465 6.465 0 0 1-2.7-.5 7.946 7.946 0 0 1-4.9-10.2c12.2-34.5 52.4-50.2 84.7-50.2zm60.1 37a8 8 0 0 1 16 0v61.6a8 8 0 1 1-16 0zm-225.3 328.6V121.9c0-57-55.3-103.4-123.4-103.4a142.246 142.246 0 0 0-65.7 15.8c-19.2 10.2-34.8 24.7-44.9 41.8a8.029 8.029 0 0 0-1.1 4v83.6a8.711 8.711 0 0 0 1.1 4.1c10.1 17.1 25.6 31.5 45 41.7 19.6 10.4 42.3 15.8 65.7 15.8a143.254 143.254 0 0 0 50.7-9.1v203.5zM111.841 70.3a8 8 0 0 1 0-16c32.2-.1 72.5 15.6 84.7 50.1a7.949 7.949 0 0 1-4.9 10.2 8.653 8.653 0 0 1-2.7.5 7.964 7.964 0 0 1-7.5-5.3c-9.1-26-42-39.5-69.6-39.5zm-60.2 82.4a8 8 0 1 1-16 0V91.1a8 8 0 0 1 16 0z" fill="#000000" opacity="1" data-original="#000000" class=""></path></g></svg>