<svg xmlns="http://www.w3.org/2000/svg" version="1.1" xmlns:xlink="http://www.w3.org/1999/xlink" width="512" height="512" x="0" y="0" viewBox="0 0 512 512" style="enable-background:new 0 0 512 512" xml:space="preserve" class=""><g transform="matrix(0.9799999999999989,0,0,0.9799999999999989,5.119989852905661,5.120000000000289)"><path fill-rule="evenodd" d="M386.784 9H125.216C90.568 9 62.38 37.188 62.38 71.836v368.328c0 34.648 28.188 62.836 62.835 62.836h261.568c34.648 0 62.836-28.188 62.836-62.836V71.836C449.62 37.188 421.432 9 386.784 9zm48.836 431.164c0 26.928-21.908 48.836-48.836 48.836H125.216c-26.928 0-48.835-21.908-48.835-48.836V71.836C76.38 44.908 98.288 23 125.216 23h261.568c26.928 0 48.836 21.908 48.836 48.836zM267 447.378c0 6.059-4.941 11-11 11-6.058 0-11-4.941-11-11s4.942-11 11-11c6.059 0 11 4.941 11 11z" clip-rule="evenodd" fill="#000000" opacity="1" data-original="#000000" class=""></path></g></svg>