<!-- <svg xmlns="http://www.w3.org/2000/svg" version="1.1" xmlns:xlink="http://www.w3.org/1999/xlink" width="512" height="512" x="0" y="0" viewBox="0 0 512 512" style="enable-background:new 0 0 512 512" xml:space="preserve" class=""><g><path d="M343.895 26.532h-42.746c-.245 4.069-3.628 7.304-7.794 7.304h-74.708c-4.167 0-7.549-3.236-7.794-7.304h-42.747c-15 0-27.207 12.206-27.207 27.207v404.523c0 15 12.206 27.207 27.207 27.207h175.79c15 0 27.207-12.206 27.207-27.207V53.738c-.001-15-12.208-27.206-27.208-27.206zm-50.541 425.112h-74.708c-4.314 0-7.843-3.529-7.843-7.843s3.529-7.794 7.843-7.794h74.708c4.314 0 7.844 3.481 7.844 7.794s-3.53 7.843-7.844 7.843z" fill="#ffffff" opacity="1" data-original="#000000" class=""></path></g></svg> -->
<!-- <svg xmlns="http://www.w3.org/2000/svg" version="1.1" xmlns:xlink="http://www.w3.org/1999/xlink" width="512" height="512" x="0" y="0" viewBox="0 0 512 512" style="enable-background:new 0 0 512 512" xml:space="preserve" class=""><g><path d="M175.947 479.262h160.106c21.523 0 39.033-17.51 39.033-39.033V71.771c0-21.523-17.51-39.033-39.033-39.033H175.947c-21.523 0-39.033 17.51-39.033 39.033v368.458c0 21.523 17.51 39.033 39.033 39.033zm-24.8-407.491c0-13.675 11.125-24.8 24.8-24.8h38.914c.228 3.725 3.313 6.677 7.095 6.677h68.089c3.782 0 6.866-2.952 7.095-6.677h38.914c13.675 0 24.8 11.125 24.8 24.8v368.458c0 13.675-11.125 24.8-24.8 24.8H175.947c-13.675 0-24.8-11.125-24.8-24.8zm63.692 355.313a7.117 7.117 0 0 1 7.117-7.117h68.089a7.117 7.117 0 0 1 0 14.234h-68.089a7.118 7.118 0 0 1-7.117-7.117z" fill="#ffffff" opacity="1" data-original="#000000" class=""></path></g></svg> -->

<svg xmlns="http://www.w3.org/2000/svg" version="1.1" xmlns:xlink="http://www.w3.org/1999/xlink" width="512" height="512" x="0" y="0" viewBox="0 0 512 512" style="enable-background:new 0 0 512 512" xml:space="preserve" class=""><g><path d="M314.355 461.08a8 8 0 0 1-8 8h-101.57a8 8 0 0 1 0-16h101.57a8 8 0 0 1 8 8zm91.02-416.91v423.67c0 24.35-21.59 44.16-48.12 44.16h-202.51c-26.54 0-48.12-19.81-48.12-44.16V44.17c0-24.35 21.58-44.17 48.12-44.17h202.51c26.53 0 48.12 19.82 48.12 44.17zm-16 0c0-15.53-14.41-28.17-32.12-28.17h-47.57v17.49a8 8 0 0 1-8 8h-96.67a8 8 0 0 1-8-8V16h-42.27c-17.72 0-32.12 12.64-32.12 28.17v423.67c0 15.53 14.4 28.16 32.12 28.16h202.51c17.71 0 32.12-12.63 32.12-28.16z" fill="#000000" opacity="1" data-original="#000000" class=""></path></g></svg>