<svg xmlns="http://www.w3.org/2000/svg" version="1.1" xmlns:xlink="http://www.w3.org/1999/xlink" width="512" height="512" x="0" y="0" viewBox="0 0 116.418 116.417" style="enable-background:new 0 0 512 512" xml:space="preserve" class=""><g><path d="M116.272 90.388h-8.237a4.965 4.965 0 0 0 .936-2.891v-58c0-2.757-2.243-5-5-5h-91.5c-2.757 0-5 2.243-5 5v58c0 1.104.37 2.113.977 2.941H.145s-.552-.535.5.517c1.75 1.159 12.375.95 12.375.95V91.9s91.162-.025 91.271-.032c2.335.018 10.068-.025 11.483-.962 1.051-1.053.498-.518.498-.518zm-51.626-.756H51.771v-.875h12.875v.875zm39.938-3.75h-92.75V28.507h92.75v57.375z" fill="#000000" opacity="1" data-original="#000000" class=""></path></g></svg>