<svg xmlns="http://www.w3.org/2000/svg" version="1.1" xmlns:xlink="http://www.w3.org/1999/xlink" width="512" height="512" x="0" y="0" viewBox="0 0 24 24" style="enable-background:new 0 0 512 512" xml:space="preserve" class=""><g><path d="M20 16a1 1 0 1 0 1 1 1.001 1.001 0 0 0-1-1Zm0 1v-.001l.5.001Z" fill="#000000" opacity="1" data-original="#000000" class=""></path><path d="M24 12.946a2.051 2.051 0 0 0-.313-1.09l-4.176-6.681A2.485 2.485 0 0 0 17.391 4H6.609a2.485 2.485 0 0 0-2.12 1.175L.313 11.857A2.052 2.052 0 0 0 0 12.946c0 .012.003.024.004.036 0 .006-.004.012-.004.018v5a2.002 2.002 0 0 0 2 2h20a2.002 2.002 0 0 0 2-2v-5c0-.006-.003-.012-.004-.018 0-.012.004-.024.004-.036Zm-10.5-6.03c0 .622-.672 1.126-1.5 1.126 0-.622.672-1.125 1.5-1.125Zm-2.646 1.25c.45 0 .847.197 1.22.197s.77-.196 1.219-.196a1.55 1.55 0 0 1 1.026.53c-.437.102-.756.395-.756.744 0 .397.409.721.937.774-.278.677-.891 1.285-1.343 1.285a7.369 7.369 0 0 1-1.083-.196 7.372 7.372 0 0 1-1.084.196c-.601 0-1.49-1.078-1.49-1.96a1.481 1.481 0 0 1 1.354-1.373ZM22 19H2a1.001 1.001 0 0 1-1-1v-3.3a2.032 2.032 0 0 0 1.054.3h19.892A2.032 2.032 0 0 0 23 14.7V18a1.001 1.001 0 0 1-1 1Z" fill="#000000" opacity="1" data-original="#000000" class=""></path></g></svg>