<svg xmlns="http://www.w3.org/2000/svg" version="1.1" xmlns:xlink="http://www.w3.org/1999/xlink" width="512" height="512" x="0" y="0" viewBox="0 0 500 500" style="enable-background:new 0 0 512 512" xml:space="preserve" class=""><g><path d="m128.368 300.289-40.749 44.454s-44.198-67.874 50.872-97.727l-10.123 53.273z" style="" fill="#e74b4d" data-original="#e74b4d" class=""></path><path d="m316.09 465.853 10.143 18.224-7.464 5.705-3.386-7.14s.078 11.738-16.24 16.299c-16.318 4.561 13.967-5.94 4.489-25.442l12.458-7.646z" style="" fill="#251326" data-original="#251326" class=""></path><path d="m277.497 437.952 20.737 40.959 24.558-12.096-19.376-44.702z" style="" fill="#e74b4d" data-original="#e74b4d" class=""></path><path d="m213.511 472.79-1.286 20.817-9.363.779.998-7.839s-6.264 9.928-22.466 4.969 14.966 2.53 17.501-19.005l14.616.279z" style="" fill="#251326" data-original="#251326" class=""></path><path d="m192.553 438.529-1.12 35.629 27.204 3.056 7.789-48.093z" style="" fill="#e74b4d" data-original="#e74b4d" class=""></path><path d="M214.94 230.167S67.094 199.773 78.085 435.826l350.097 3.733s18.287-127.035-67.166-192.033c-81.634-62.093-150.58-27.01-146.076-17.359z" style="" fill="#e74b4d" data-original="#e74b4d" class=""></path><path d="m259.911 261.445-9.687 154.435s174.348-4.107 179.601 0c5.253 4.107 3.987 33.416 0 32.622s-356.157-6.825-359.237-8.943-6.955-32.64 0-33.294l6.955-.655 147.047 5.136 8.361-144.9 26.96-4.401z" style="" fill="#fadac9" data-original="#fadac9" class=""></path><path d="M206.843 79.54S248.499 5.903 286.011.324s88.105 62.824 88.105 62.824l-39.922-7.899s6.57 35.687 4.605 60.068L206.843 79.54z" style="" fill="#e74b4d" data-original="#e74b4d" class=""></path><path d="M336.269 119.17S225.535 88.771 199.553 84.834c0 0-69.089 104.857 26.738 145.977 79.329 34.039 136.707-85.129 109.978-111.641z" style="" fill="#ed8069" data-original="#ed8069" class=""></path><path d="M336.269 119.17s8.51 82.14-36.097 77.129c-44.607-5.011-24.575-56.308-56.485-46.611-31.91 9.697-55.976 36.218-64.152 12.964s20.018-77.819 20.018-77.819-73.375 4.225-76.635 45.997 25.18 34.543 18.234 20.881c-6.945-13.662-58.138-10.57-34.133 27.893s62.816 40.353 46.912 22.995-55.844-.854-28.964 38.132 82 32.475 64.488 11.725-67.143 1.225-11.866 32.974 105.652 4.743 87.284-7.896c-18.368-12.639-35.773 31.943 3.618 31.247 39.391-.695 60.123-46.524 41.755-47.797s-25.369 42.919 15.094 30.643 36.123-76.095 18.834-67.873c-17.289 8.223 13.173 50.96 27.267 24.59s.454-76.381-13.003-59.195 33.877 19.592 28.032-11.436-50.201-58.543-50.201-58.543z" style="" fill="#fadac9" data-original="#fadac9" class=""></path><path d="M247.706 173.723c-.321 0-.618-.067-.892-.207-3.454-1.76.95-19.548 13.092-52.872a1.104 1.104 0 0 1 2.072.756c-8.276 22.717-15.797 47.718-14.053 50.237 1.525.768 10.07-9.666 19.111-24.799a1.104 1.104 0 0 1 1.895 1.131c-4.778 7.996-15.981 25.753-21.225 25.754zM223.643 140.309c-.151 0-.302-.01-.452-.027-.933-.114-1.682-.617-2.167-1.455-2.933-5.063 5.233-24.726 6.172-26.952a1.103 1.103 0 0 1 2.033.859c-3.388 8.015-8.093 21.886-6.297 24.988.157.274.325.346.525.37 3.911.406 11.037-11.24 14.61-18.735a1.101 1.101 0 0 1 1.469-.521 1.1 1.1 0 0 1 .521 1.469c-1.618 3.4-9.869 20.004-16.414 20.004zM290.221 157.983l-.157-.001c-1.624-.034-2.966-.734-3.881-2.023-4.15-5.854 1.337-23.174 1.977-25.13a1.103 1.103 0 0 1 2.097.685c-1.641 5.022-5.248 18.976-2.274 23.17.515.726 1.191 1.074 2.128 1.093l.108.001c6.831.001 12.603-13.697 14.259-19.005a1.11 1.11 0 0 1 1.38-.725c.581.182.907.8.726 1.382-.262.843-6.516 20.553-16.363 20.553z" style="" fill="#251326" data-original="#251326" class=""></path><circle cx="307.666" cy="169.15" r="14.389" style="" fill="#e74c58" data-original="#e74c58" class=""></circle><circle cx="201.587" cy="142.669" r="14.389" style="" fill="#e74c58" data-original="#e74c58" class=""></circle><circle cx="376.773" cy="64.489" r="14.103" style="" fill="#fadac9" data-original="#fadac9" class=""></circle><path d="M241.603 196.624a4.832 4.832 0 0 1-1.501-.232c-4.691-1.513-6.467-10.011-5.429-25.979.041-.609.627-1.062 1.172-1.029.607.04 1.068.564 1.029 1.172-1.245 19.157 1.912 23.096 3.907 23.739 4.361 1.414 12.732-8.818 16.975-15.597a1.103 1.103 0 0 1 1.869 1.169c-1.138 1.816-10.717 16.757-18.022 16.757z" style="" fill="#251326" data-original="#251326" class=""></path><path d="M275.24 301.393c-2.059 0-4.137-.349-6.215-1.052-6.926-2.342-13.542-6.109-18.823-10.333-9.435 3.809-24.026 4.795-43.855-.843-8.696-2.472-36.125-11.765-42.313-31.809-4.639-.619-10.247-2.59-16.697-6.372-9.526-5.583-14.828-15.897-14.548-28.297.168-7.429 2.403-14.783 5.759-20.013-6.816-3.347-13.574-9.34-17.279-18.48-5.27-12.994-.461-21.704 2.875-25.74a24.852 24.852 0 0 1 8.783-6.761c-3.586-4.838-7.807-15.2 3.056-31.102a1.108 1.108 0 0 1 1.533-.289c.502.344.631 1.031.289 1.533-10.469 15.323-6.022 24.888-2.748 29.012 2.8-.945 5.451-1.196 7.501-.787 2.384.473 4.034 1.824 4.643 3.805.793 2.574-.575 3.69-1.202 4.05-2.645 1.528-7.811-.469-11.595-4.459a22.847 22.847 0 0 0-8.561 6.403c-3.691 4.467-7.129 12.171-2.533 23.506 3.545 8.739 10.03 14.41 16.503 17.506 1.555-2.015 3.295-3.591 5.145-4.566 3.183-1.672 6.442-1.524 9.437.432 3.271 2.135 4.676 4.185 4.174 6.091-.474 1.802-2.556 2.911-5.862 3.123-3.409.223-7.74-.524-12.168-2.372-3.218 4.859-5.382 11.951-5.546 19.159-.155 6.803 1.389 19.272 13.458 26.346 5.776 3.386 10.807 5.233 14.97 5.933-.118-.541-.22-1.09-.304-1.645-.92-5.959.625-11.218 3.933-13.398 2.016-1.333 4.368-1.286 6.618.117 4.962 3.099 6.739 8.362 4.225 12.513-1.902 3.141-5.774 5.147-11.386 4.96 2.91 7.828 12.013 21.4 40.441 29.481 18.616 5.294 32.348 4.649 41.346 1.369-6.439-5.644-10.383-11.866-9.551-16.521.517-2.9 2.985-6.291 12.093-6.061 5.727.156 9.956 2.405 11.606 6.168 1.551 3.536.543 7.864-2.696 11.578-1.764 2.023-4.206 3.898-7.329 5.441a61.011 61.011 0 0 0 17.313 9.235c8.134 2.747 14.688-1.14 18.76-4.886 4.9-4.51 8.688-10.99 10.9-17.149-3.23-2.318-5.403-5.189-6.579-7.925-1.663-3.87-1.523-7.637.366-9.829 1.411-1.638 3.607-2.163 6.177-1.485 1.393.366 3.222 1.48 4.021 4.701.844 3.405.319 8.364-1.348 13.637 3.086 1.862 7.09 3.187 12.065 3.425 13.036.617 22.605-12.478 26.908-23.883a51.521 51.521 0 0 0 1.129-3.317c-2.845-.964-4.441-2.682-5.322-4.143-2.64-4.378-1.432-10.44 1.415-12.935 1.63-1.429 3.607-1.475 5.302-.125 3.123 2.496 3.004 8.962 1.331 15.606 3.241.487 7.968-.027 14.864-2.668 10.157-3.893 14.528-11.852 12.997-23.656-1.096-8.438-5.003-16.955-8.877-23.3-8.087.116-11.653-2.982-12.366-6.297-.588-2.742.881-5.428 3.345-6.115 2.164-.612 6.332 3.844 10.288 10.168a39.804 39.804 0 0 0 3.849-.404c3.885-.589 6.403-2.162 7.488-4.678 3.168-7.349-5.869-20.517-5.961-20.648a1.102 1.102 0 1 1 1.814-1.257c.403.581 9.821 14.317 6.172 22.779-1.406 3.261-4.495 5.274-9.181 5.984a44.615 44.615 0 0 1-2.901.346c2.487 4.284 4.794 9.19 6.342 13.878 5.783 17.501 1.443 30.023-12.22 35.259-7.383 2.83-12.577 3.342-16.238 2.734-.36 1.204-.765 2.4-1.206 3.568-4.458 11.812-14.438 25.33-28.081 25.33-.329 0-.661-.008-.993-.024-5.16-.247-9.375-1.589-12.691-3.5-2.335 6.331-6.235 12.871-11.313 17.545-4.613 4.244-9.622 6.402-14.746 6.403zm-25.309-33.369c-3.95 0-8.397.794-9.015 4.256-.691 3.869 3.125 9.773 9.614 15.223 3.271-1.486 5.787-3.349 7.555-5.377 2.664-3.053 3.538-6.508 2.341-9.242-1.294-2.949-4.811-4.716-9.648-4.848a29.535 29.535 0 0 0-.847-.012zm47.335-9.129c-.87 0-1.76.244-2.419 1.007-1.292 1.501-1.296 4.523-.009 7.519.969 2.254 2.714 4.613 5.281 6.592 1.396-4.624 1.837-8.899 1.116-11.804-.433-1.744-1.253-2.787-2.44-3.1a6.134 6.134 0 0 0-1.529-.214zm-131.482-3.596c5.117.355 8.658-1.244 10.226-3.839 1.891-3.123.448-7.028-3.506-9.5-1.497-.935-2.961-.985-4.238-.146-2.121 1.398-3.861 5.41-2.966 11.22.092.604.24 1.368.484 2.265zm175.149-19.736c-.418 0-.831.186-1.258.56-1.848 1.62-3.181 6.489-.98 10.137.67 1.11 1.874 2.389 4.019 3.158 1.708-6.827 1.228-11.92-.569-13.356-.415-.332-.816-.499-1.212-.499zM141.872 201.77c3.907 1.551 7.697 2.176 10.695 1.98 2.447-.157 3.709-.858 3.872-1.484.162-.616-.592-1.949-3.248-3.684-2.319-1.515-4.744-1.623-7.204-.326-1.462.771-2.849 1.976-4.115 3.514zm213.43-11.722c-1.212.354-2.012 1.937-1.673 3.514.465 2.173 3.086 4.304 8.8 4.54-3.192-4.825-6.117-7.945-7.127-8.054zm-218.59-37.408c3.25 3.043 6.965 4.071 8.188 3.365.138-.079.556-.32.196-1.491-.37-1.203-1.37-1.974-2.966-2.291-1.503-.297-3.392-.157-5.418.417z" style="" fill="#251326" data-original="#251326" class=""></path><path d="M184.396 88.481s-14.418-19.596 42.689-22.525c57.107-2.929 147.027 30.695 122.189 66.812 0 0-86.713-44.788-164.878-44.287z" style="" fill="#fadac9" data-original="#fadac9" class=""></path><path d="M275.004 251.17c-9.172.001-17.768-3.732-23.274-8.568-5.136 2.523-12.872 4.73-24.502 5.483-7.581.492-32.55.5-35.427-19.998a21.688 21.688 0 0 1-.205-2.344c-3.556.116-8.134-.883-13.615-3.714-6.978-3.605-10.818-8.248-11.412-13.804-1.232-11.523 11.998-22.583 12.562-23.048a1.104 1.104 0 0 1 1.404 1.702c-.129.107-12.883 10.775-11.772 21.118.51 4.769 3.954 8.831 10.23 12.073 5.156 2.664 9.362 3.548 12.631 3.464.416-6.72 3.758-12.565 8.251-13.543 2.403-.52 4.346.168 5.313 1.905 1.4 2.517.323 6.5-2.559 9.472-1.12 1.155-3.991 3.572-8.834 4.218.024.721.084 1.455.19 2.196 2.61 18.616 25.986 18.564 33.102 18.104 10.202-.66 17.703-2.533 22.938-4.919-2.253-2.371-3.762-4.92-4.269-7.375-.812-3.938 1.094-7.153 5.227-8.821 3.584-1.441 7.017-1.045 9.19 1.064 1.923 1.865 2.438 4.696 1.378 7.575-.566 1.538-2.356 4.903-7.695 8.051 5.089 4.225 12.978 7.72 21.879 7.497 15.877-.369 20.959-11.027 22.407-15.592.149-.466.28-.929.396-1.386-2.828-1.706-4.732-3.814-5.571-5.805-1.219-2.883-.426-5.65 2.119-7.402 1.284-.888 2.675-.917 3.803-.081 2.317 1.715 3.125 6.786 2.151 12.135 4.309 2.113 10.62 3.261 18.379 1.714 3.999-.798 7.066-2.867 9.119-6.15 6.11-9.776 1.63-27.222 1.585-27.398a1.103 1.103 0 0 1 2.132-.561c.198.753 4.77 18.535-1.844 29.123-2.388 3.822-5.942 6.227-10.561 7.148-8.044 1.608-14.623.52-19.312-1.663-.093.332-.19.662-.295.993-1.589 5.016-7.159 16.727-24.457 17.13-.261.004-.522.007-.782.007zm-19.898-25.051c-1.023 0-2.145.229-3.297.696-3.185 1.284-4.495 3.414-3.894 6.33.429 2.079 1.919 4.474 4.225 6.761 4.105-2.253 6.448-4.839 7.34-7.26.749-2.035.435-3.991-.844-5.229-.887-.861-2.117-1.298-3.53-1.298zm42-5.832c-.192 0-.444.073-.773.299-2.134 1.471-1.906 3.383-1.337 4.728.616 1.457 1.986 3.009 4.01 4.35.7-4.614-.177-8.274-1.43-9.203-.091-.066-.237-.174-.47-.174zm-95.718-8.263c-.36 0-.719.052-1.045.123-3.088.672-6.032 5.343-6.495 11.199 3.952-.615 6.271-2.557 7.197-3.513 2.399-2.475 3.009-5.434 2.214-6.866-.403-.724-1.133-.943-1.871-.943z" style="" fill="#251326" data-original="#251326" class=""></path><circle cx="164.752" cy="100.134" r="18.143" style="" fill="#ed8069" data-original="#ed8069" class=""></circle><path d="M165.209 110.142a1.104 1.104 0 0 1-.866-1.786c2.873-3.633 3.9-6.813 3.054-9.451-1.331-4.155-6.881-5.804-6.937-5.82a1.104 1.104 0 0 1-.754-1.366 1.107 1.107 0 0 1 1.365-.753c.276.08 6.739 2.004 8.425 7.266 1.083 3.381-.067 7.247-3.422 11.492a1.1 1.1 0 0 1-.865.418z" style="" fill="#251326" data-original="#251326" class=""></path><circle cx="362.495" cy="140.297" r="18.143" style="" fill="#ed8069" data-original="#ed8069" class=""></circle><path d="M357.992 149.098c-.517 0-.978-.366-1.081-.893-1.027-5.312-.273-9.276 2.244-11.78 3.918-3.896 10.542-2.635 10.822-2.579a1.1 1.1 0 0 1 .866 1.294c-.118.598-.713.98-1.294.869-.058-.015-5.77-1.084-8.845 1.986-1.958 1.956-2.507 5.25-1.626 9.79a1.103 1.103 0 0 1-1.086 1.313zM426.73 368.503s-209.208-2.548-345.306-13.522c0 0-4.97 15.601-3.923 20.856 0 0 352.193 20.782 351.541 13.338-.652-7.445-1.21-13.964-2.312-20.672z" style="" fill="#251326" data-original="#251326" class=""></path><path d="m158.339 229.584 134.624 47.887-41.424 128.793-139.853-49.159z" style="" fill="#c083b0" data-original="#c083b0" class=""></path><path d="M277.497 326.661c-.116 0-.237-.018-.353-.058l-137.28-46.44a1.102 1.102 0 1 1 .707-2.089l137.28 46.44a1.102 1.102 0 0 1-.354 2.147z" style="" fill="#251326" data-original="#251326" class=""></path><path d="M184.24 383.711a1.103 1.103 0 0 1-1.057-1.415l38.412-130.147a1.103 1.103 0 1 1 2.115.625l-38.412 130.147c-.142.48-.582.79-1.058.79z" style="" fill="#251326" data-original="#251326" class=""></path><path d="M236.376 369.61c-.939 0-1.897-.085-2.864-.259-4.809-.863-8.632-3.689-9.734-7.2-.627-1.995-.665-5.085 2.718-8.478 3.765-3.772 4.2-8.748 3.297-12.492-3.482 2.02-7.135 3.092-9.803 3.135-2.406.051-4.029-.705-4.742-2.093-.831-1.62-.254-3.788 1.719-6.443 2.767-3.727 5.58-4.132 7.449-3.828 2.651.438 5.05 2.617 6.528 5.833 2.436-1.806 4.611-4.146 5.944-6.967 3.547-7.498-10.004-15.419-18.969-20.66-6.461-3.775-9.704-5.671-8.839-7.812.553-1.362 2.985-2.087 12.327-4.356 12.151-2.951 32.49-7.889 34.603-15.62.635-2.331-.506-4.938-3.396-7.751-3.582-3.485-7.6-4.92-11.927-4.278-15.569 2.317-30.952 29.942-31.107 30.221a1.102 1.102 0 1 1-1.932-1.064c.648-1.177 16.066-28.859 32.712-31.338 5.059-.749 9.691.887 13.792 4.878 3.508 3.415 4.85 6.75 3.984 9.913-2.455 8.986-21.963 13.723-36.207 17.182-4.393 1.067-9.327 2.265-10.641 3.012.816 1.062 4.632 3.291 7.742 5.11 10.238 5.985 24.263 14.181 19.852 23.507-1.6 3.384-4.225 6.126-7.137 8.173 1.286 4.418.971 10.629-3.687 15.296-2.061 2.068-2.813 4.232-2.175 6.259.846 2.695 4.07 4.982 8.018 5.691 4.609.828 8.914-.677 11.509-4.025a1.104 1.104 0 0 1 1.744 1.352c-2.558 3.292-6.456 5.102-10.778 5.102zm-12.941-35.533c-1.611 0-3.224 1.031-4.699 3.017-1.348 1.816-1.919 3.356-1.527 4.121.299.584 1.34.933 2.744.895 2.423-.039 5.875-1.104 9.129-3.078-1.154-2.7-3.05-4.579-5.027-4.905a3.82 3.82 0 0 0-.62-.05z" style="" fill="#251326" data-original="#251326" class=""></path><path d="M146.278 345.846a1.104 1.104 0 0 1-1.103-1.077c-.274-11.674 8.184-17.672 13.251-20.209a32.8 32.8 0 0 1 4.956-1.983c-1.073-3.611-1.202-9.283 3.948-16.193 7.279-9.762 22.193-9.164 34.137-6.656-10.893-6.899-25.189-20.312-26.43-31.386-.515-4.588 1.167-8.352 5.001-11.186 4.129-3.055 8.046-3.781 11.636-2.167 12.879 5.794 16.839 40.875 17.378 46.314l1.068.465c1.579.687 2.233.971 1.863 1.971-.368.997-1.245.724-2.167.44-11.565-3.564-32.24-7.851-40.717 3.522-4.626 6.206-4.516 11.183-3.588 14.292 5.3-1.266 10.35-1.085 12.711.77 1.182.928 1.652 2.233 1.322 3.672-.631 2.757-2.399 4.565-4.85 4.96-3.47.574-7.559-1.75-9.913-5.63-.19-.314-.398-.693-.609-1.132a31.05 31.05 0 0 0-4.76 1.898c-4.598 2.303-12.278 7.728-12.032 18.185a1.105 1.105 0 0 1-1.077 1.129l-.025.001zm20.07-21.794c.11.211.22.401.321.57 1.869 3.08 5.091 5.016 7.676 4.596 1.564-.252 2.619-1.385 3.052-3.275.14-.608-.022-1.041-.536-1.446-1.66-1.302-5.829-1.519-10.513-.445zm21.48-67.696c-2.014 0-4.157.854-6.48 2.571-3.198 2.366-4.546 5.365-4.12 9.168 1.307 11.666 19.131 26.789 29.486 32.112-.913-8.018-5.059-38.312-15.943-43.209a7.131 7.131 0 0 0-2.943-.642z" style="" fill="#251326" data-original="#251326" class=""></path><path d="M146.271 249.003s17.847-10.546 24.587-8.428c6.74 2.118-22.84 14.307-21.912 14.682.928.375 18.638-6.786 25.186-4.283s-24.651 10.977-24.651 10.977 21.919-1.701 22.723-.54c2.832 4.088-23.3 11.517-23.3 11.517s15.211-.695 17.709.846-22.583 9.373-27.657 8.789-14.615-18.852 7.315-33.56zM289.158 300.143s-12.475-16.556-19.514-17.169c-7.039-.613 15.657 21.937 14.656 21.93-1.001-.007-14.641-13.382-21.649-13.565-7.008-.183 18.601 19.55 18.601 19.55s-19.613-9.932-20.799-9.166c-4.177 2.699 17.146 19.534 17.146 19.534s-13.796-6.444-16.693-5.973c-2.897.472 17.301 17.278 22.214 18.674s20.701-11.855 6.038-33.815z" style="" fill="#ed8069" data-original="#ed8069" class=""></path><path d="M282.7 339.194s14.489-33.241 17.444-30.404c2.955 2.837 12.879 10.003 12.879 10.003s-14.046 27.567-17.774 28.119c-3.728.552-12.549-7.718-12.549-7.718z" style="" fill="#fadac9" data-original="#fadac9" class=""></path><path d="M354.749 363.339c-10.577 0-20.789-2.532-28.613-5.199-13.012-4.436-22.419-10.205-22.512-10.263a1.103 1.103 0 0 1 1.158-1.876c.366.226 36.89 22.457 66.474 12.633 13.514-4.487 23.628-15.006 30.058-31.261a1.103 1.103 0 0 1 2.05.812c-6.683 16.894-17.255 27.843-31.422 32.545-5.622 1.866-11.462 2.609-17.193 2.609zM329.228 317.772c-7.335 0-12.816-1.657-13.223-1.783a1.102 1.102 0 1 1 .654-2.106c.17.053 17.445 5.254 31.557-3.167 8.795-5.251 14.584-14.66 17.205-27.967a1.102 1.102 0 1 1 2.162.426c-2.746 13.955-8.888 23.861-18.254 29.445-6.759 4.028-14.058 5.152-20.101 5.152z" style="" fill="#251326" data-original="#251326" class=""></path><path d="M130.961 259.798s6.347 19.823 7.372 24.471c1.025 4.648-3.022 7.327-8.903 9.532s-11.392-22.265-11.179-26.438c.302-5.918 12.71-7.565 12.71-7.565z" style="" fill="#fadac9" data-original="#fadac9" class=""></path><path d="M92.433 335.341c-1.247 0-1.979-.183-2.117-.221a1.102 1.102 0 0 1-.771-1.355 1.09 1.09 0 0 1 1.348-.773c.233.051 16.236 3.576 36.511-33.235a1.103 1.103 0 0 1 1.93 1.064c-17.215 31.259-31.636 34.52-36.901 34.52zM265.336 23.613a1.103 1.103 0 0 1-.853-1.8c.233-.284 5.759-6.925 12.444-5.111.588.16.933.767.773 1.354-.159.587-.76.944-1.355.774-5.292-1.441-10.109 4.321-10.157 4.381a1.098 1.098 0 0 1-.852.402zM280.902 26.912a1.103 1.103 0 0 1-.853-1.8c.233-.283 5.761-6.928 12.444-5.111.588.16.933.767.773 1.354a1.093 1.093 0 0 1-1.355.774c-5.292-1.446-10.109 4.321-10.157 4.381a1.093 1.093 0 0 1-.852.402zM253.538 35.558a1.103 1.103 0 0 1-.853-1.8c.233-.283 5.759-6.929 12.444-5.111.588.16.933.767.773 1.354-.159.588-.76.941-1.355.774-5.294-1.442-10.107 4.321-10.157 4.381a1.098 1.098 0 0 1-.852.402zM283.172 12.985a1.103 1.103 0 0 1-.853-1.8c.233-.284 5.759-6.93 12.444-5.111.588.16.933.767.773 1.354a1.093 1.093 0 0 1-1.355.774c-5.285-1.44-10.107 4.321-10.157 4.381a1.096 1.096 0 0 1-.852.402zM313.429 16.471a1.09 1.09 0 0 1-.715-.264c-4.191-3.576-10.986-.396-11.055-.365a1.1 1.1 0 1 1-.948-1.99c.327-.158 8.164-3.817 13.432.677a1.102 1.102 0 0 1-.714 1.942zM317.471 29.673a1.1 1.1 0 0 1-.896-.461c-3.19-4.462-10.57-3.037-10.641-3.02a1.112 1.112 0 0 1-1.299-.863 1.1 1.1 0 0 1 .859-1.299c.355-.074 8.843-1.736 12.872 3.898a1.103 1.103 0 0 1-.895 1.745zM370.74 350.098a1.104 1.104 0 0 1-1.103-1.055 1.104 1.104 0 0 1 1.055-1.149c5.479-.233 8.32-7.189 8.348-7.259a1.102 1.102 0 0 1 2.05.813c-.136.341-3.388 8.355-10.303 8.649l-.047.001zM357.878 344.636c-.887 0-1.8-.128-2.731-.426a1.103 1.103 0 0 1 .672-2.1c5.22 1.676 10.288-3.879 10.34-3.935a1.1 1.1 0 0 1 1.555-.085c.454.406.493 1.102.088 1.555-.211.235-4.531 4.991-9.924 4.991zM375.402 332.858a1.104 1.104 0 0 1-1.103-1.055 1.104 1.104 0 0 1 1.055-1.149c5.503-.234 8.317-7.188 8.345-7.258a1.103 1.103 0 0 1 2.05.812c-.136.341-3.386 8.355-10.301 8.649l-.046.001zM384.725 339.137a1.104 1.104 0 0 1-.048-2.204c5.505-.234 8.32-7.188 8.348-7.258a1.103 1.103 0 0 1 2.05.812c-.136.341-3.386 8.355-10.303 8.649l-.047.001zM354.331 353.75c-2.029 0-4.191-.49-6.082-1.977a1.103 1.103 0 1 1 1.361-1.733c4.329 3.401 10.992-.045 11.059-.081a1.103 1.103 0 0 1 1.029 1.951c-.211.11-3.555 1.84-7.367 1.84zM330.74 25.958c-.342 0-.683-.16-.896-.461-3.205-4.481-10.566-3.036-10.641-3.023a1.111 1.111 0 0 1-1.301-.859 1.105 1.105 0 0 1 .861-1.301c.358-.072 8.847-1.73 12.872 3.899a1.103 1.103 0 0 1-.895 1.745z" style="" fill="#251326" data-original="#251326" class=""></path></g></svg>